<svg width="130" height="40" fill="none" xmlns="http://www.w3.org/2000/svg"><rect width="130" height="40" rx="8" fill="#000"/><rect x=".5" y=".5" width="129" height="39" rx="7.5" stroke="#A6A6A6"/><path d="M36.569 11.253h.794a.993.993 0 0 0 1.019-.553c.06-.124.095-.26.1-.398 0-.55-.411-.906-1.11-.906a1.054 1.054 0 0 0-1.07.533c-.07.124-.113.26-.129.402h-.872A1.878 1.878 0 0 1 35.973 9a1.86 1.86 0 0 1 1.427-.414c1.17 0 1.993.658 1.993 1.604a1.39 1.39 0 0 1-1.08 1.365v.07c.366.017.71.178.957.448.248.27.379.628.365.995a2 2 0 0 1-.738 1.356 1.98 1.98 0 0 1-1.48.418 1.966 1.966 0 0 1-1.998-1.01 1.99 1.99 0 0 1-.233-.755h.885c.054.57.576.939 1.345.939.77 0 1.273-.414 1.273-.997 0-.591-.474-.956-1.3-.956h-.82v-.81ZM40.64 13.424c0-.81.603-1.277 1.668-1.344l1.214-.07v-.389c0-.476-.312-.744-.917-.744-.494 0-.835.182-.935.5h-.856c.09-.773.816-1.27 1.832-1.27 1.124 0 1.758.563 1.758 1.514v3.077h-.853v-.633h-.07a1.511 1.511 0 0 1-1.346.707 1.347 1.347 0 0 1-1.375-.796 1.365 1.365 0 0 1-.12-.552Zm2.882-.384v-.377l-1.094.07c-.618.042-.898.253-.898.65 0 .405.35.64.831.64a1.05 1.05 0 0 0 1.05-.576c.064-.127.102-.265.111-.407ZM46.751 10.943v3.755h-.884v-4.503h2.95v.748h-2.066ZM54.179 12.444c0 1.431-.72 2.328-1.852 2.328a1.455 1.455 0 0 1-1.38-.756h-.07v2.179h-.884v-6h.851v.744h.066a1.56 1.56 0 0 1 1.408-.819c1.14 0 1.86.893 1.86 2.324Zm-.91 0c0-.95-.448-1.526-1.198-1.526-.744 0-1.21.587-1.21 1.53 0 .939.466 1.526 1.206 1.526.754 0 1.202-.575 1.202-1.53ZM55.356 16.31v-.765c.096.013.193.018.29.017a.765.765 0 0 0 .81-.628l.066-.22-1.622-4.52h.963l1.124 3.577h.07l1.12-3.576h.938l-1.672 4.689c-.383 1.095-.806 1.447-1.72 1.447-.074 0-.284-.008-.367-.02ZM59.804 13.42h.88c.087.397.457.604.975.604.59 0 .951-.26.951-.666 0-.434-.325-.641-.95-.641h-.671v-.69h.659c.534 0 .806-.207.806-.584 0-.33-.263-.583-.806-.583-.495 0-.857.211-.914.567h-.852a1.58 1.58 0 0 1 .614-1.022c.33-.247.744-.353 1.152-.297 1.065 0 1.675.484 1.675 1.245a.928.928 0 0 1-.708.921v.07a1.005 1.005 0 0 1 .877 1.014c0 .856-.725 1.422-1.833 1.422-.978 0-1.774-.45-1.855-1.36ZM64.765 14.698v-4.503h.877v3.097h.07l2.066-3.097h.876v4.503h-.876v-3.114h-.067l-2.069 3.114h-.877ZM73.485 10.943h-1.412v3.755h-.885v-3.755h-1.412v-.748h3.709v.748ZM78.25 13.482c-.12.412-.381.767-.736 1.006a1.814 1.814 0 0 1-1.207.297 2.025 2.025 0 0 1-1.571-.68 2.048 2.048 0 0 1-.5-1.645 2.086 2.086 0 0 1 .5-1.65 2.068 2.068 0 0 1 1.567-.702c1.247 0 2 .856 2 2.27v.31h-3.165v.05a1.195 1.195 0 0 0 .713 1.194c.152.065.316.098.481.096a1.07 1.07 0 0 0 1.065-.546h.853Zm-3.112-1.451h2.263a1.09 1.09 0 0 0-.662-1.084 1.079 1.079 0 0 0-.44-.083 1.142 1.142 0 0 0-1.077.718 1.155 1.155 0 0 0-.084.449ZM82 10.195h2.02c.877 0 1.392.446 1.392 1.145a.97.97 0 0 1-.758.951v.07c.262.017.508.134.686.327.178.193.276.448.273.711 0 .786-.588 1.299-1.572 1.299H82v-4.503Zm.876.682v1.166h.877c.535 0 .79-.207.79-.587 0-.351-.222-.58-.692-.58l-.975.001Zm0 1.82v1.319h1.05c.522 0 .802-.232.802-.658 0-.45-.316-.662-.913-.662h-.939ZM24.655 20.3c.01-.834.231-1.652.641-2.378A4.939 4.939 0 0 1 27 16.149a5.05 5.05 0 0 0-1.732-1.551 5.023 5.023 0 0 0-2.24-.607c-1.672-.176-3.292 1.005-4.144 1.005-.868 0-2.18-.988-3.592-.958a5.273 5.273 0 0 0-2.584.774 5.304 5.304 0 0 0-1.868 1.954c-1.925 3.348-.49 8.269 1.355 10.976.922 1.325 2 2.805 3.412 2.753 1.38-.058 1.896-.885 3.563-.885 1.65 0 2.134.885 3.574.852 1.481-.025 2.415-1.332 3.305-2.67a10.984 10.984 0 0 0 1.512-3.092 4.766 4.766 0 0 1-2.113-1.76 4.798 4.798 0 0 1-.793-2.64ZM21.936 12.21a4.888 4.888 0 0 0 1.11-3.49 4.927 4.927 0 0 0-3.194 1.66 4.64 4.64 0 0 0-1.138 3.361 4.064 4.064 0 0 0 3.222-1.53ZM42.107 27.14h-4.711l-1.132 3.356H34.27l4.462-12.418h2.074l4.462 12.418h-2.03l-1.13-3.356Zm-4.223-1.549h3.734l-1.84-5.447h-.052l-1.842 5.447ZM54.905 25.97c0 2.813-1.499 4.62-3.76 4.62a3.044 3.044 0 0 1-2.836-1.583h-.043v4.484h-1.85V21.442h1.79v1.506h.035c.29-.502.71-.916 1.215-1.198a3.185 3.185 0 0 1 1.654-.402c2.288 0 3.795 1.816 3.795 4.622Zm-1.901 0c0-1.833-.943-3.038-2.382-3.038-1.413 0-2.364 1.23-2.364 3.038 0 1.824.951 3.046 2.364 3.046 1.439 0 2.382-1.197 2.382-3.046ZM64.824 25.97c0 2.813-1.499 4.62-3.76 4.62a3.043 3.043 0 0 1-1.645-.382 3.06 3.06 0 0 1-1.191-1.201h-.043v4.484h-1.85V21.442h1.79v1.506h.035a3.185 3.185 0 0 1 2.87-1.6c2.286 0 3.794 1.816 3.794 4.622Zm-1.901 0c0-1.833-.943-3.038-2.382-3.038-1.413 0-2.364 1.23-2.364 3.038 0 1.824.95 3.046 2.364 3.046 1.439 0 2.382-1.197 2.382-3.046ZM71.38 27.036c.136 1.232 1.327 2.04 2.955 2.04 1.559 0 2.68-.808 2.68-1.919 0-.964-.676-1.54-2.278-1.936l-1.602-.388c-2.27-.55-3.323-1.617-3.323-3.348 0-2.142 1.858-3.614 4.497-3.614 2.612 0 4.403 1.472 4.463 3.614h-1.867c-.112-1.239-1.132-1.987-2.622-1.987s-2.51.757-2.51 1.858c0 .878.651 1.395 2.245 1.79l1.361.336c2.536.603 3.59 1.626 3.59 3.443 0 2.323-1.842 3.778-4.772 3.778-2.74 0-4.591-1.42-4.711-3.667h1.893ZM82.961 19.3v2.142h1.714v1.472h-1.714v4.991c0 .776.344 1.137 1.097 1.137.203-.004.406-.018.608-.043v1.463a5.05 5.05 0 0 1-1.027.086c-1.825 0-2.536-.689-2.536-2.444v-5.19h-1.31v-1.472h1.31V19.3h1.858ZM85.668 25.97c0-2.849 1.67-4.639 4.274-4.639 2.613 0 4.275 1.79 4.275 4.639 0 2.856-1.654 4.638-4.275 4.638-2.621 0-4.274-1.782-4.274-4.638Zm6.664 0c0-1.954-.891-3.108-2.39-3.108-1.5 0-2.39 1.162-2.39 3.108 0 1.962.89 3.106 2.39 3.106 1.499 0 2.39-1.144 2.39-3.106ZM95.742 21.442h1.764v1.541h.043c.12-.48.4-.906.795-1.204.395-.298.88-.45 1.373-.431.213-.001.425.022.633.069v1.738a2.569 2.569 0 0 0-.83-.112 1.855 1.855 0 0 0-1.441.596 1.876 1.876 0 0 0-.487 1.487v5.37h-1.85v-9.054ZM108.879 27.837c-.248 1.643-1.842 2.771-3.88 2.771-2.622 0-4.249-1.764-4.249-4.595 0-2.84 1.636-4.682 4.171-4.682 2.494 0 4.061 1.72 4.061 4.466v.637h-6.365v.112a2.357 2.357 0 0 0 1.452 2.392c.309.126.64.185.973.172a2.031 2.031 0 0 0 2.081-1.273h1.756Zm-6.253-2.702h4.506a2.17 2.17 0 0 0-2.211-2.298 2.268 2.268 0 0 0-1.624.668 2.3 2.3 0 0 0-.671 1.63Z" fill="#fff"/></svg>