<svg width="40" height="40" fill="none" xmlns="http://www.w3.org/2000/svg"><path fill="#4064AD" d="M0 0h40v40H0z"/><path d="M13.415 20.848h2.821V32.58c0 .231.186.419.415.419h4.783c.23 0 .415-.188.415-.42V20.904h3.243c.211 0 .389-.16.413-.372l.492-4.32a.422.422 0 0 0-.102-.326.413.413 0 0 0-.31-.14h-3.736v-2.708c0-.816.436-1.23 1.294-1.23h2.442c.23 0 .415-.188.415-.42V7.422a.417.417 0 0 0-.415-.419h-3.366A3.274 3.274 0 0 0 22.065 7c-.584 0-2.614.116-4.218 1.606-1.777 1.652-1.53 3.63-1.47 3.972v3.167h-2.962a.417.417 0 0 0-.415.419v4.264c0 .232.186.42.415.42Z" fill="#fff"/></svg>