<svg width="40" height="40" fill="none" xmlns="http://www.w3.org/2000/svg"><path fill="url(#a)" d="M0 0h40v40H0z"/><path d="M25.825 7h-11.65C10.219 7 7 10.219 7 14.175v11.65C7 29.78 10.219 33 14.175 33h11.65C29.78 33 33 29.781 33 25.825v-11.65C33 10.22 29.781 7 25.825 7Zm4.868 18.825a4.874 4.874 0 0 1-4.868 4.868h-11.65a4.874 4.874 0 0 1-4.868-4.868v-11.65a4.874 4.874 0 0 1 4.868-4.868h11.65a4.874 4.874 0 0 1 4.868 4.868v11.65Z" fill="#fff"/><path d="M20 13.3a6.707 6.707 0 0 0-6.7 6.7c0 3.695 3.006 6.7 6.7 6.7 3.694 0 6.7-3.005 6.7-6.7 0-3.694-3.006-6.7-6.7-6.7Zm0 11.093A4.398 4.398 0 0 1 15.607 20 4.398 4.398 0 0 1 20 15.608 4.398 4.398 0 0 1 24.393 20 4.398 4.398 0 0 1 20 24.393ZM26.981 11.345c-.444 0-.88.18-1.195.495a1.7 1.7 0 0 0-.497 1.196c0 .445.182.882.497 1.197.314.314.75.495 1.195.495.446 0 .881-.181 1.197-.495.315-.315.495-.752.495-1.197 0-.446-.18-.882-.495-1.196a1.7 1.7 0 0 0-1.197-.495Z" fill="#fff"/><defs><linearGradient id="a" x1="2.686" y1="37.394" x2="39.748" y2="5.31" gradientUnits="userSpaceOnUse"><stop stop-color="#F1C800"/><stop offset=".359" stop-color="#F02501"/><stop offset=".672" stop-color="#C837AB"/><stop offset="1" stop-color="#7C39AD"/></linearGradient></defs></svg>