<svg width="40" height="40" fill="none" xmlns="http://www.w3.org/2000/svg"><path fill="#FF9800" d="M0 0h40v40H0z"/><path d="M12.114 20.954c-.664 1.306.09 1.93 1.81 2.996 1.463.903 3.483 1.234 4.781 1.366l-5.114 4.92c-1.489 1.426.908 3.715 2.395 2.319l4.027-3.884c1.541 1.483 3.02 2.904 4.027 3.89 1.488 1.401 3.883-.869 2.411-2.32l-5.13-4.92c1.314-.132 3.304-.482 4.749-1.366h-.001c1.72-1.072 2.474-1.695 1.82-3-.396-.741-1.462-1.361-2.88-.29 0 0-1.917 1.468-5.008 1.468-3.092 0-5.007-1.468-5.007-1.468-1.418-1.077-2.489-.451-2.88.29Z" fill="#fff"/><path d="M19.998 20.154c3.768 0 6.845-2.945 6.845-6.57 0-3.64-3.077-6.584-6.845-6.584-3.769 0-6.845 2.944-6.845 6.585 0 3.624 3.076 6.569 6.845 6.569Zm0-9.818c1.852 0 3.362 1.452 3.362 3.248 0 1.782-1.51 3.234-3.362 3.234-1.851 0-3.361-1.453-3.361-3.234-.001-1.797 1.509-3.248 3.361-3.248Z" fill="#fff"/></svg>