<svg width="40" height="40" fill="none" xmlns="http://www.w3.org/2000/svg"><path fill="#4A76A8" d="M0 0h40v40H0z"/><path d="M29.377 21.884c.862.794 1.772 1.54 2.546 2.414.342.388.665.789.913 1.24.35.64.033 1.344-.577 1.383l-3.787-.002c-.977.076-1.757-.294-2.412-.924-.524-.503-1.01-1.039-1.514-1.56a3.53 3.53 0 0 0-.682-.57c-.517-.317-.966-.22-1.261.288-.301.517-.37 1.09-.4 1.666-.04.84-.31 1.061-1.205 1.1-1.915.085-3.732-.188-5.42-1.098-1.489-.803-2.643-1.936-3.647-3.218-1.956-2.498-3.454-5.242-4.8-8.063-.303-.636-.081-.977.663-.99 1.236-.022 2.471-.02 3.708 0 .503.006.835.278 1.029.725.668 1.55 1.486 3.023 2.513 4.39.274.363.553.727.95.983.439.283.773.19.98-.272a2.9 2.9 0 0 0 .218-.92c.098-1.078.11-2.154-.06-3.227-.106-.67-.507-1.104-1.216-1.23-.362-.065-.308-.192-.133-.387.304-.336.59-.545 1.162-.545h4.28c.674.125.824.41.916 1.05l.004 4.48c-.008.248.131.982.604 1.146.378.117.628-.168.855-.395 1.025-1.025 1.756-2.236 2.41-3.491.29-.552.54-1.124.78-1.697.18-.425.46-.634.968-.624l4.12.003c.123 0 .246.002.364.02.695.112.885.394.67 1.033-.337 1.002-.995 1.837-1.637 2.677-.688.896-1.422 1.76-2.104 2.662-.626.823-.576 1.238.202 1.953Z" fill="#fff"/></svg>